HIERARCHY
ROOT pelvis
{
  OFFSET 0 100 0
  CHANNELS 6 Xposition Yposition Zposition Zrotation Xrotation Yrotation
  JOINT pelvis_right_femur
  {
    OFFSET -10.78128 -3.44521 -0.5502486
    CHANNELS 3 Zrotation Xrotation Yrotation
    JOINT right_femur_tibia
    {
      OFFSET -0.8047443 -44.0398 -0.1307829
      CHANNELS 3 Zrotation Xrotation Yrotation
      JOINT right_tibia_foot
      {
        OFFSET 3.006224 -47.83518 -5
        CHANNELS 3 Zrotation Xrotation Yrotation
        End Site
        {
          OFFSET 0 -5 15
        }
      }
    }
  }
  JOINT pelvis_left_femur
  {
    OFFSET 10.78128 -3.44521 -0.5502486
    CHANNELS 3 Zrotation Xrotation Yrotation
    JOINT left_femur_tibia
    {
      OFFSET 0.8047443 -44.0398 -0.1307829
      CHANNELS 3 Zrotation Xrotation Yrotation
      JOINT left_tibia_foot
      {
        OFFSET -4.370144 -48.10324 -4.275266
        CHANNELS 3 Zrotation Xrotation Yrotation
        End Site
        {
          OFFSET 0 -5 15
        }
      }
    }
  }
  JOINT pelvis_spine1
  {
    OFFSET 0 6.468898 -3.129235
    CHANNELS 3 Zrotation Xrotation Yrotation
    JOINT spine1
    {
      OFFSET 0 23.15396 4.99043
      CHANNELS 3 Zrotation Xrotation Yrotation
      JOINT spine2
      {
        OFFSET 0 20.79997 -5.064912
        CHANNELS 3 Zrotation Xrotation Yrotation
        JOINT neck
        {
          OFFSET 0 14.38658 9.616178
          CHANNELS 3 Zrotation Xrotation Yrotation
          End Site
          {
            OFFSET 0 20 0
          }
        }
      }
      JOINT right_manubrium
      {
        OFFSET -5.722621 16.35077 3.967754
        CHANNELS 3 Zrotation Xrotation Yrotation
        JOINT right_clavicle
        {
          OFFSET -13.16364 1.694482 -4.693211
          CHANNELS 3 Zrotation Xrotation Yrotation
          JOINT right_humerus
          {
            OFFSET -28.5034 -0.3100689 -2.792744
            CHANNELS 3 Zrotation Xrotation Yrotation
            JOINT right_radius
            {
              OFFSET -25.15693 0.02248979 -1.271978
              CHANNELS 3 Zrotation Xrotation Yrotation
              End Site
              {
                OFFSET -15 0 0
              }
            }
          }
        }
      }
      JOINT left_manubrium
      {
        OFFSET 5.722621 16.35077 3.967754
        CHANNELS 3 Zrotation Xrotation Yrotation
        JOINT left_clavicle
        {
          OFFSET 13.16364 1.694482 -4.693211
          CHANNELS 3 Zrotation Xrotation Yrotation
          JOINT left_humerus
          {
            OFFSET 29.39168 -1.063119 -2.237045
            CHANNELS 3 Zrotation Xrotation Yrotation
            JOINT left_radius
            {
              OFFSET 24.59957 -0.9528479 0.9047498
              CHANNELS 3 Zrotation Xrotation Yrotation
              End Site
              {
                OFFSET 15 -0 -0
              }
            }
          }
        }
      }
    }
  }
}
MOTION
Frames: 19
Frame Time: 0.0416666666667
0 103.5113 0 1.397443 -0.3620015 -0.1342437 3.243291 -16.46904 10.98208 -0 40.84077 -0 -6.212162 -18.57297 -3.435952 -7.673552 9.361063 -23.04709 -0 5.619964 -0 18.37191 -9.211881 29.98007 -3.794247 -4.02411 5.37101 2.583055 10.94761 -7.606132 1.741846 22.30796 5.510109 2.251933 -24.97483 9.311178 6.468388 -21.19227 11.5791 86.51783 39.96078 -17.8045 -0 0 16.09297 -5.307586 7.227052 4.66346 3.863139 -18.12381 -3.436557 -90.86887 21.58818 20.26929 0 0 -15.50295 16.26498 12.68504 -3.11445
0.245513 103.0026 1.462574 1.284064 -0.400027 -0.2905989 3.349284 -17.07386 10.80045 -0 39.74878 -0 -6.435673 -18.09026 -3.393652 -7.536965 9.664938 -22.76139 -0 5.260812 -0 18.05144 -9.733886 29.83988 -3.702361 -3.842529 5.296879 2.649977 10.92744 -7.674789 1.676594 22.31206 5.614912 2.291747 -25.22272 9.334153 6.251621 -21.21883 11.57482 86.82619 39.52117 -18.18451 -0 0 15.67125 -5.414682 7.059747 4.680933 3.916983 -18.3858 -3.533516 -90.86304 21.78244 20.24715 0 0 -15.87756 16.17177 12.79425 -2.951358
0.5045942 101.8804 3.62274 0.4885902 0.5836999 -0.2976651 4.461087 -22.52731 8.110545 -0 30.1023 -0 -5.749 -13.10936 -2.734294 -6.845655 10.83464 -20.53192 -0 4.617383 -0 10.07512 -18.76863 26.30413 -3.502463 -3.261649 4.960399 2.713186 9.499576 -7.915153 1.521658 21.53396 6.635767 2.925117 -25.62434 9.6707 5.429352 -19.62927 11.24571 86.44087 34.54208 -19.52 -0 0 14.7804 -7.956193 8.556032 4.452269 7.255548 -20.98979 -0.8205071 -92.00984 22.74699 19.30206 0 0 -16.9803 13.36318 16.42864 -1.155086
0.6880692 100.4298 6.086567 -0.2565845 0.913735 -0.2405207 5.28202 -25.94261 7.564351 -0 25.14723 -0 -6.385119 -10.74375 -2.618639 -6.08929 12.43524 -19.52739 -0 4.18329 -0 6.66251 -22.10464 24.52378 -2.955578 -2.544458 4.546153 2.893551 8.973347 -8.094756 1.536196 21.3591 7.138938 3.128985 -26.75116 10.20089 4.462632 -19.22932 10.99304 87.43589 32.43968 -21.01363 -0 0 13.34464 -8.564603 8.735718 4.191639 7.885928 -21.99934 -0.4819235 -92.44549 24.64721 19.29844 0 0 -18.42032 11.83107 17.74309 0.7170353
0.8873163 98.90477 8.87293 -0.4472957 1.424994 -0.1139056 5.592172 -27.62357 6.690389 -0 22.62865 -0 -6.404265 -8.996396 -2.177066 -5.952608 12.68658 -18.67502 -0 4.77954 -0 4.950812 -23.56838 22.9882 -2.937041 -2.446792 4.411543 2.948158 8.875108 -8.290731 1.433564 20.81427 7.40808 3.515721 -26.56221 10.00388 4.548058 -18.76175 11.02197 87.17974 32.0405 -21.14577 -0 0 13.56001 -9.414447 9.144753 4.251189 8.75639 -22.6354 0.09864998 -92.10148 23.46017 18.38185 0 0 -18.61736 11.90187 17.61735 -0.1781823
1.039168 97.21513 11.95409 -0.7479994 1.535401 0.04863156 5.831798 -29.38269 5.968456 -0 19.6382 -0 -6.890044 -7.668756 -2.008805 -5.595264 13.7249 -17.8317 -0 5.045275 -0 3.447485 -24.64088 21.66612 -2.682239 -2.062815 4.085827 3.038825 8.684058 -8.409566 1.409712 20.73119 7.591527 3.644414 -26.8183 10.07179 3.991381 -18.4008 10.88347 87.8404 31.20946 -21.8652 -0 0 12.60074 -9.929881 9.117907 4.241312 8.985198 -23.1346 0.01500027 -91.605 23.70808 17.50144 0 0 -19.65081 11.69709 17.70136 -0.1177109
1.181882 95.46259 15.39148 -0.9088973 1.760946 0.2511612 5.967371 -30.68857 5.021583 -0 17.15741 -0 -7.209339 -6.164815 -1.649379 -5.433807 14.31875 -16.83711 -0 5.901917 -0 2.375565 -25.18035 20.26265 -2.565835 -1.925321 3.859789 3.126088 8.702543 -8.614865 1.279242 20.42166 7.748084 3.879859 -26.70455 9.829618 3.770357 -18.05301 10.88825 88.10724 30.73797 -22.2637 -0 0 12.19145 -10.66568 9.162646 4.370055 9.382214 -23.67497 0.04494761 -90.90289 22.61805 16.38714 0 0 -20.31455 12.09066 17.25017 -1.140664
1.292483 93.64468 19.16644 -1.111241 1.830787 0.4834559 6.096886 -31.82227 4.237546 -0 14.88062 -0 -7.639429 -4.944294 -1.443683 -5.206058 15.13881 -15.94407 -0 6.911769 -0 1.357164 -25.4653 18.98522 -2.354455 -1.725076 3.573248 3.20591 8.662748 -8.759583 1.212785 20.30493 7.843731 3.98714 -26.73138 9.721153 3.343239 -17.71948 10.81812 88.65569 30.14105 -22.80445 -0 0 11.41529 -11.22138 9.124329 4.442293 9.497757 -24.07306 -0.1343428 -90.23442 22.18202 15.38535 0 0 -21.14508 12.27215 16.95376 -1.651756
1.388115 91.83208 23.32954 -1.286729 1.944102 0.744188 6.239567 -32.70781 3.380994 -0 12.86192 -0 -8.066619 -3.54392 -1.140591 -5.042419 15.77816 -14.92427 -0 8.528601 -0 0.5175905 -25.36679 17.61435 -2.147437 -1.651338 3.326642 3.292731 8.758109 -8.96687 1.08351 20.07141 7.930911 4.144696 -26.64451 9.462136 3.033067 -17.42142 10.82315 89.09665 29.64713 -23.28253 -0 0 10.84318 -11.8839 9.104049 4.56589 9.631572 -24.51411 -0.3258677 -89.52428 21.12276 14.38305 0 0 -21.84114 12.70491 16.37802 -2.610081
1.459206 90.0673 27.88841 -1.501136 1.984227 1.02654 6.445492 -33.3503 2.688935 -0 11.19771 -0 -8.563709 -2.297706 -0.9284465 -4.838482 16.46247 -13.96177 -0 10.68658 -0 -0.2972171 -24.93442 16.27584 -1.860247 -1.575127 3.052974 3.371029 8.841987 -9.142079 0.9918792 19.91854 7.972571 4.235598 -26.61362 9.260084 2.654152 -17.11761 10.79682 89.65483 29.15081 -23.80139 -0 0 10.13792 -12.42598 9.079853 4.644066 9.56821 -24.83125 -0.6345851 -88.86869 20.36424 13.50716 0 0 -22.5044 13.00195 15.83985 -3.280933
1.514387 88.44443 32.8791 -1.741752 2.030977 1.322846 6.768175 -33.6443 2.125145 -0 9.998235 -0 -9.136839 -1.011413 -0.694944 -4.630434 16.9656 -12.95075 -0 13.79526 -0 -0.9990731 -23.97997 14.87382 -1.50244 -1.57649 2.806686 3.449488 9.026092 -9.346385 0.871572 19.70448 7.992279 4.342973 -26.56015 8.980489 2.35225 -16.84941 10.81388 90.18481 28.78067 -24.30045 -0 0 9.55287 -12.93511 9.071541 4.709764 9.388313 -25.10037 -1.020331 -88.27704 19.36272 12.81062 0 0 -22.98447 13.35137 15.1114 -4.03822
1.554432 87.06921 38.30142 -2.029094 2.03675 1.618239 7.251914 -33.42403 1.885818 -0 9.549045 -0 -9.810226 0.02840644 -0.5458138 -4.366335 17.2286 -12.03288 -0 18.04775 -0 -1.633601 -22.38942 13.49132 -1.041781 -1.58733 2.579941 3.512518 9.234115 -9.513872 0.7697084 19.51611 7.962735 4.420363 -26.52348 8.700894 2.128908 -16.58548 10.83416 90.70225 28.64215 -24.73431 -0 0 9.02884 -13.23096 9.076285 4.708844 8.969713 -25.16971 -1.506525 -87.83142 18.54545 12.41679 0 0 -23.1539 13.54646 14.3074 -4.510275
1.594663 86.09007 44.13024 -2.346937 2.026138 1.887706 7.920583 -32.4108 2.051639 -0 10.11452 -0 -10.6166 0.725891 -0.4399919 -4.040159 16.87579 -11.21818 -0 23.87653 -0 -2.161972 -19.90976 12.09518 -0.4723836 -1.601004 2.446324 3.548994 9.512368 -9.639032 0.6423447 19.2977 7.894052 4.520448 -26.4601 8.33511 2.13993 -16.37081 10.90871 91.05895 28.95077 -24.99511 -0 0 8.777817 -13.25079 9.075043 4.646665 8.310523 -25.01014 -2.073431 -87.63557 17.74861 12.53274 0 0 -22.78571 13.5882 13.3052 -4.720727
1.661085 85.65114 50.25682 -2.648287 1.988777 2.094146 8.675467 -30.24144 2.701668 -0 11.901 -0 -11.53027 0.6891359 -0.4007817 -3.628708 15.36202 -10.63291 -0 31.40219 -0 -2.702717 -16.43133 10.67399 0.1806316 -1.506018 2.499319 3.523325 9.793065 -9.62926 0.4765371 19.09516 7.791012 4.660051 -26.34166 7.861096 2.545554 -16.22767 11.0591 91.04936 29.9537 -24.878 -0 0 8.971662 -12.84814 9.046895 4.549455 7.399217 -24.50047 -2.649151 -87.87207 17.24276 13.44965 0 0 -21.64219 13.24038 12.1657 -4.287562
1.800523 85.82209 56.46939 -2.807145 1.941204 2.197686 9.214035 -26.5524 3.635765 -0 14.53042 -0 -12.41034 -0.3913217 -0.3269002 -3.166979 11.79372 -10.27751 -0 40.30795 -0 -3.496447 -12.0991 9.076321 0.8286045 -1.174927 2.93315 3.376941 10.03323 -9.380962 0.2132971 18.93323 7.70073 4.884681 -26.13925 7.210086 3.483636 -16.27568 11.35574 90.3668 31.70804 -24.13153 -0 0 9.88947 -12.11626 9.024832 4.586462 6.372478 -23.68348 -3.096301 -88.76152 17.20895 15.54465 0 0 -19.76483 12.23644 10.98302 -2.769309
2.062457 86.46552 62.48186 -2.614748 1.871228 2.184422 9.047725 -21.2657 4.335051 -0 16.61478 -0 -12.84961 -2.670833 -0.0702886 -2.762423 5.424057 -10.03703 -0 49.26658 -0 -4.8591 -7.677312 7.186656 1.274662 -0.5119869 3.959513 3.030484 10.15001 -8.765782 -0.1387663 18.92871 7.668984 5.151785 -25.86532 6.445049 4.788996 -16.66614 11.82576 88.8364 33.75151 -22.5972 -0 0 11.6107 -11.55032 9.242321 5.076032 5.478227 -22.77537 -3.243359 -90.39356 18.06148 18.93869 0 0 -17.90305 10.25101 10.06143 0.4412706
2.456555 87.21145 68.08637 -1.891894 1.621843 2.083606 7.88564 -14.79742 4.222859 -0 16.31312 -0 -12.37608 -5.775006 0.4521917 -2.528365 -3.321751 -9.655236 -0 56.34389 -0 -6.653524 -4.340271 5.364958 1.252976 0.3488067 5.58904 2.442954 10.13313 -7.767469 -0.4217746 19.26622 7.663231 5.310525 -25.45187 5.79906 5.855959 -17.4336 12.36033 86.80392 35.20681 -20.50561 -0 0 13.70081 -11.99093 10.05842 6.223398 4.942578 -22.13553 -3.060909 -92.35414 19.93177 22.86346 0 0 -17.3329 7.450084 9.679883 5.180485
2.924396 87.67324 73.29632 -0.7677354 0.8937281 1.947895 6.093637 -8.028349 3.255799 -0 13.5158 -0 -11.07297 -8.908208 0.9802193 -2.397123 -12.13981 -8.974898 -0 59.86123 -0 -8.064256 -2.921815 4.737423 0.6282779 1.074075 7.298014 1.730619 9.986066 -6.587475 -0.3937731 20.10001 7.543425 5.219654 -24.62628 5.518572 6.114693 -18.23003 12.67945 84.9691 35.75541 -18.2822 -0 0 15.19539 -13.74951 11.4079 7.746999 4.751749 -21.82629 -2.710658 -93.62282 22.27051 25.52368 0 0 -18.26306 4.763935 9.924885 9.81077
3.37727 87.70358 78.29806 0.259874 -0.4367692 1.798505 4.538656 -1.954606 2.021148 -0 10.52264 -0 -9.702294 -11.3702 1.001882 -2.124997 -18.28696 -8.042714 -0 59.14782 -0 -8.37118 -3.239843 6.279241 -0.350408 1.455167 8.25302 1.151261 9.674219 -5.55788 -0.009726013 21.33298 7.197364 4.877069 -23.20577 5.582937 5.642391 -18.56124 12.59754 83.58724 35.82009 -15.98876 -0 0 15.4277 -16.05601 12.6014 9.097027 4.69085 -21.46195 -2.372649 -93.44367 24.1089 25.56436 0 0 -19.09888 3.112047 10.70252 12.43126
